# xmcd
#
# Track frame offsets:
#	150
#	17061
#	31770
#	51204
#	62013
#	75747
#	91356
#	102992
#	118502
#	137111
#	151745
#	171550
#	184235
#	197896
#	215230
#
# Disc length: 3098 seconds
#
# Revision: 1
# Processed by: cddbd v1.5.2PL0 Copyright (c) Steve Scherf et al.
# Submitted via: audiograbber 1.83.01
#
DISCID=d20c180f
DTITLE=Heino - 30 Hits Collektion CD2
DYEAR=2009
DGENRE=Volksmusik
TTITLE0=Capri Fischer
TTITLE1=In einer Bar in Mexiko
TTITLE2=Mohokana Shalali
TTITLE3=Wir lieben die Stürme
TTITLE4=Griechischer Wein
TTITLE5=Casablanca, Träume die nie vergehen
TTITLE6=Kehr ich einst zur Heimat wieder
TTITLE7=La Paloma
TTITLE8=Tampico
TTITLE9=Sierra Madre
TTITLE10=Der schwarze Korsar
TTITLE11=Caramba, Caracho, ein Whisky
TTITLE12=Wir lagen vor Madagaskar
TTITLE13=Laßt uns unsere alten Lieder
TTITLE14=Ich sag 'auf Wiedersehen'
EXTD=
EXTT0=
EXTT1=
EXTT2=
EXTT3=
EXTT4=
EXTT5=
EXTT6=
EXTT7=
EXTT8=
EXTT9=
EXTT10=
EXTT11=
EXTT12=
EXTT13=
EXTT14=
PLAYORDER=
